<svg id="Capa_1" enable-background="new 0 0 512 512" height="512" viewBox="0 0 512 512" width="512" xmlns="http://www.w3.org/2000/svg"><g><g><path d="m388.433 181.192-64.97 9.844c-4.733.47-15.262 2.377-18.909-.668-14.105-11.773-30.423-20.757-48.575-25.844-17.24-4.832-34.706-5.749-51.708-3.413-4.669.642-9.212-1.817-11.182-6.098l-32.894-56.926c-4.263-9.26-17.031-10.178-22.628-1.659-21.816 33.203-25.782 69.343-24.075 112.363-19.644 20.151-34.668 45.183-42.323 72.498-10.029 35.788 17.948 72.815 48.868 100.298-27.242 24.26-44.649 61.236-44.649 102.664 0 6.013.389 11.924 1.1 17.724h239.632c.711-5.8 1.1-11.711 1.1-17.724 0-26.458-7.102-51.099-19.327-71.774 28.077-9.708 52.138-25.627 59.261-51.043 7.523-26.846 7.358-55.635.771-82.817 24.316-36.197 48.03-50.645 50.704-87.069.747-10.172-11.008-11.668-20.196-10.356z" fill="#e8a284"/><g fill="#f4dab5"><path d="m328.204 358.155c-8.172-12.268-23.303-17.805-39.614-16.161-14.281 1.439-27.491-7.507-30.991-21.426-3.717-14.782-12.782-30.314-33.776-36.198-20.687-5.797-36.066 2.507-46.608 13.068-10.066 10.086-26.19 11.229-37.603 2.698-13.036-9.745-28.735-12.805-42.014-6.607-12.238 5.712-19.744 18.061-21.555 32.682 1.508 3.355 3.228 6.678 5.134 9.962 0 0 35.506 48.909 76.182 74.649-9.693 17.832-15.676 42.287-15.676 69.273 0 7.525.489 14.838 1.371 21.881h106.497c.882-7.043 1.371-14.356 1.371-21.881 0-20.572-3.476-39.673-9.422-55.491 41.806-6.569 82.145-23.738 82.145-23.738 2.109-1.236 4.156-2.527 6.129-3.877 5.921-13.35 5.864-27.675-1.57-38.834z"/><ellipse cx="292.976" cy="265.196" rx="13.693" ry="19.359" transform="matrix(.27 -.963 .963 .27 -41.439 475.743)"/><ellipse cx="176.012" cy="232.417" rx="13.693" ry="19.359" transform="matrix(.27 -.963 .963 .27 -95.279 339.185)"/></g><path d="m111.49 291.519c-2.499-9.243-2.867-18.639-.26-27.94 6.632-23.666 19.65-45.355 36.67-62.814-1.398-35.222 6.022-66.765 22.791-94.405l-4.789-10.403c-4.263-9.26-17.031-10.179-22.629-1.659-21.815 33.203-31.488 71.474-29.781 114.495-19.644 20.15-34.668 45.183-42.323 72.498-3.911 13.955-2.025 28.097 3.544 41.79 6.272-16.109 19.367-30.251 36.777-31.562z" fill="#d57b84"/><path d="m119.012 382.544c-26.646 24.269-43.625 60.809-43.625 101.708 0 6.013.389 11.924 1.1 17.725h65.942c-1.585-12.352-1.683-24.648.132-36.686-14.893-12.01-23.895-27.617-23.895-44.68 0-10.318 3.311-20.095 9.21-28.872-2.864-3.176-5.847-6.311-8.864-9.195z" fill="#d57b84"/><path d="m330.464 366.902c-40.866 24.278-109.736 23.992-121.149 20.794-12.824-3.594-84.731-47.753-97.825-96.176-17.41 1.311-30.505 15.453-36.778 31.561 8.713 21.426 26.468 41.75 45.335 58.517-.349.311-.689.632-1.035.947 3.017 2.884 6 6.019 8.864 9.194.492-.732.995-1.459 1.523-2.177 24.029 19.632 47.715 32.947 54.978 34.982 14.47 4.055 108.959 4.051 152.723-33.134-1.486-8.277-4.088-16.41-6.636-24.508z" fill="#dba2b3"/><path d="m142.562 465.29c-1.815 12.038-1.717 24.335-.132 36.686h105.271c1.999-5.509 3.643-11.181 4.587-16.925-10.702 2.731-22.271 4.224-34.345 4.224-30.159.001-57.174-9.303-75.381-23.985z" fill="#dba2b3"/><path d="m252.288 485.052c-.944 5.744-2.588 11.415-4.587 16.925h68.42c.711-5.8 1.1-11.711 1.1-17.725 0-14.135-2.034-27.75-5.785-40.521-9.881 19.108-31.651 34.305-59.148 41.321z" fill="#d57b84"/><path d="m362.76 314.527c-.813 6.241-2.049 12.423-3.75 18.49-4.109 14.663-14.729 25.676-28.547 33.884 2.548 8.098 5.15 16.232 6.637 24.508 9.546-8.111 16.692-17.98 20.053-29.974 4.268-15.226 6.056-31.078 5.607-46.908z" fill="#d57b84"/><path d="m499.927 56.536-47.697 47.033s1.576 9.033-2.868 19.073c-5.844 13.204-17.149 21.666-37.028 21.652s-48.308-4.702-60.024-6.756c-11.488-2.013-23.36-5.883-21.769-18.736 1.428-11.535 10.95-14.392 27.071-12.355 0 0 23.131 2.241 25.532 1.354 15.121-5.587-11.145-20.358-17.225-23.131-10.729-4.893-44.193-16.452-51.413-16.102-7.22.351-64.928 27.664-64.928 27.664-10.036 3.708-16.094-3.43-19.009-9.481-2.916-6.052-3.357-16.233 6.121-21.635 0 0 54.221-31.442 71.74-33.636 6.47-.81 66.557 6.563 94.227 13.76l56.269-44.821 51.518-.211s.218 43.598-.314 46.068c-.011.051-10.167 10.224-10.203 10.26z" fill="#c49a8b"/><path d="m510.444.209-14.966.062-72.767 72.34c-6.11 6.074-1.556 13.79-3.601 22.16-.385 1.575-.927 3.245-1.682 4.951-4.766 10.768-13.985 17.668-30.196 17.657-14.668-.01-43.723-3.141-54.547-4.977-1.093 1.744-1.828 3.849-2.144 6.402-1.591 12.853 10.281 16.723 21.769 18.736 11.716 2.053 40.145 6.741 60.024 6.755s31.184-8.448 37.028-21.652c4.444-10.04 2.868-19.074 2.868-19.074l47.697-47.033c.036-.035 10.192-10.208 10.203-10.258.532-2.471.314-46.069.314-46.069z" fill="#b2748a"/><path d="m115.21 35.745c-.639-14.313-12.441-25.723-26.912-25.723-11.47 0-21.259 7.17-25.147 17.27-3.888-10.1-13.677-17.27-25.147-17.27-14.214 0-25.848 11.009-26.863 24.964-4.778 27.757 51.046 72.807 51.046 72.807s57.415-44.943 53.023-72.048z" fill="#d789b9"/><path d="m115.21 35.745c-.639-14.314-12.441-25.723-26.912-25.723-4.675 0-11.337 6.31-15.168 8.405 15.724-5.169 23.029 4.272 23.54 15.574 2.332 14.207-16.003 33.38-29.571 45.813-7.309 6.698-16.87 6.416-24.77.431-7.108-5.385-13.985-10.881-19.816-19.17 1.379 4.541 1.357 5.999 3.514 10.223 15.137 19.526 36.161 36.495 36.161 36.495s57.414-44.942 53.022-72.048z" fill="#c668b9"/><path d="m413.546 393.991 8.233 23.149c.353.991 1.05 1.777 1.931 2.173l20.567 9.266c2.906 1.309 2.906 5.939 0 7.248l-20.567 9.266c-.881.397-1.578 1.182-1.931 2.173l-8.233 23.149c-1.163 3.271-5.276 3.271-6.44 0l-8.233-23.149c-.353-.991-1.05-1.777-1.931-2.173l-20.567-9.266c-2.906-1.309-2.906-5.939 0-7.248l20.567-9.266c.881-.397 1.578-1.182 1.931-2.173l8.233-23.149c1.164-3.27 5.277-3.27 6.44 0z" fill="#efc5b4"/><path d="m457.859 272.692 6.107 17.172c.261.735.779 1.318 1.432 1.612l15.257 6.874c2.155.971 2.155 4.405 0 5.376l-15.257 6.874c-.653.294-1.171.877-1.432 1.612l-6.107 17.172c-.863 2.426-3.914 2.426-4.777 0l-6.107-17.172c-.262-.735-.779-1.318-1.432-1.612l-15.257-6.874c-2.155-.971-2.155-4.405 0-5.376l15.257-6.874c.653-.294 1.171-.877 1.432-1.612l6.107-17.172c.863-2.426 3.914-2.426 4.777 0z" fill="#efc5b4"/><circle cx="28.549" cy="384.667" fill="#e8a284" r="17.977"/><ellipse cx="481.024" cy="347.294" fill="#e8a284" rx="7.755" ry="7.755" transform="matrix(.757 -.653 .653 .757 -110.058 398.47)"/></g><g><g fill="#3c122c"><path d="m412.906 176.993c-7.614-7.11-19.489-6.637-25.975-5.71l-64.729 9.808c-.718.075-1.544.175-2.446.285-2.086.256-7.358.902-9.64.584-15.512-12.757-32.81-21.868-51.433-27.087-18.04-5.056-36.805-6.297-55.777-3.692-.305.044-.596-.103-.715-.361l-.194-.421-32.926-56.983c-3.573-7.313-10.77-12.208-18.91-12.819-8.331-.635-16.375 3.33-20.972 10.326-24.281 36.956-27.07 76.506-25.866 114.01-19.83 21.298-34.247 46.674-41.806 73.65-8.821 31.475 6.398 67.128 43.99 103.216-24.731 25.906-40.143 62.257-40.143 102.45 0 6.211.395 12.584 1.174 18.943.622 5.081 4.944 8.805 9.935 8.805.406 0 .818-.025 1.231-.075 5.494-.673 9.402-5.673 8.729-11.167-.68-5.553-1.025-11.106-1.025-16.506 0-35.099 13.484-66.786 35.035-89.108 9.298 7.743 18.872 14.806 27.735 20.754-8.1 18.241-12.509 40.641-12.509 64.197 0 7.5.477 15.112 1.417 22.628.413 3.295 3.415 5.634 6.714 5.22 3.295-.413 5.633-3.418 5.22-6.714-.879-7.022-1.324-14.132-1.324-21.134 0-21.528 4.087-41.611 10.817-57.561 10.061 6.157 18.415 10.33 23.158 11.659 4.33 1.214 13.941 2.098 26.612 2.098 8.834 0 19.158-.433 30.211-1.481 4.063 13.488 6.413 28.97 6.413 45.285 0 7.002-.445 14.113-1.324 21.134-.413 3.296 1.925 6.301 5.22 6.714.254.032.505.047.754.047 2.988 0 5.579-2.226 5.96-5.267.941-7.515 1.417-15.128 1.417-22.628 0-16.467-2.167-32.357-6.231-46.668 7.106-.941 14.388-2.144 21.668-3.655 7.284-1.512 14.169-3.255 20.677-5.207 8.999 17.666 14.147 38.023 14.147 59.687 0 5.4-.345 10.953-1.026 16.505-.673 5.494 3.234 10.494 8.728 11.167 5.485.67 10.494-3.234 11.168-8.728.78-6.358 1.174-12.731 1.174-18.944 0-23.99-5.499-46.605-15.183-66.454 29.618-12.484 48.304-30.674 54.745-53.658 7.391-26.374 8.023-55.143 1.871-83.483 6.328-9.069 12.533-16.666 18.555-24.041 15.725-19.255 29.306-35.885 31.395-64.333.443-6.003-1.588-11.433-5.716-15.287zm-144.607 233.153c-36.629 7.603-74.012 6.766-81.217 4.747-7.142-2.002-39.143-20.6-66.082-46.003-14.365-13.546-29.743-31.21-37.237-50.026 2.899-9.117 8.61-16.257 16.383-19.885 10.746-5.017 24.154-2.784 35.87 5.974 13.778 10.299 33.321 8.894 45.46-3.266 11.873-11.895 25.576-15.772 40.729-11.526 15.385 4.311 25.332 15.036 29.566 31.874 4.222 16.792 19.963 27.695 37.426 25.943 14.669-1.479 27.387 3.572 34.007 13.511 4.726 7.096 5.955 16.03 3.751 25.267-16.35 12.236-39.034 19.316-58.656 23.39zm103.405-166.209c-6.753 8.269-14.407 17.642-22.099 29.093l-2.46 3.662 1.039 4.288c6.404 26.424 6.169 53.31-.681 77.751-1.585 5.655-4.216 10.746-7.639 15.337-.605-6.917-2.807-13.476-6.651-19.246-9.133-13.712-26.039-20.748-45.222-18.81-11.473 1.159-21.802-5.955-24.556-16.909-5.287-21.027-18.422-35.04-37.985-40.522-19.378-5.43-37.526-.377-52.487 14.61-7.94 7.955-20.729 8.87-29.747 2.129-15.325-11.455-33.327-14.162-48.158-7.239-6.293 2.938-11.599 7.444-15.722 13.083-.525-5.729-.113-11.478 1.482-17.17 7.032-25.092 20.812-48.678 39.85-68.206l3.009-3.087-.171-4.307c-1.406-35.419.339-72.831 22.436-106.462.748-1.139 1.793-1.354 2.476-1.354.087 0 .168.004.243.009.78.059 1.835.399 2.429 1.691l.194.421 32.931 56.99c3.946 8.03 12.488 12.576 21.419 11.35 16.233-2.229 32.261-1.175 47.639 3.135 16.223 4.546 31.315 12.583 44.857 23.887 6.431 5.368 16.62 4.122 24.06 3.211.847-.104 1.613-.199 2.261-.263l65.398-9.896c4.323-.617 7.352-.184 8.739.273-1.765 21.79-12.321 34.719-26.884 52.551z"/><path d="m291.74 331.44c-1.8 0-3.628-.243-5.445-.752-5.197-1.456-9.515-4.849-12.16-9.553s-3.299-10.157-1.843-15.354c.896-3.199 4.216-5.064 7.413-4.168 3.198.896 5.064 4.215 4.167 7.413-.589 2.103-.324 4.31.746 6.214s2.818 3.277 4.922 3.867c4.344 1.216 8.863-1.326 10.08-5.668.896-3.198 4.214-5.066 7.413-4.167 3.198.896 5.064 4.215 4.168 7.413-2.497 8.912-10.631 14.755-19.461 14.755z"/><path d="m153.169 292.603c-1.83 0-3.672-.251-5.482-.759-10.727-3.006-17.009-14.179-14.003-24.906.895-3.198 4.214-5.065 7.413-4.168 3.198.896 5.064 4.215 4.167 7.413-1.217 4.341 1.326 8.863 5.668 10.08 2.103.59 4.31.325 6.214-.746 1.904-1.07 3.277-2.818 3.867-4.921.896-3.199 4.218-5.066 7.413-4.168 3.198.896 5.064 4.215 4.168 7.413-1.456 5.197-4.849 9.515-9.553 12.16-3.066 1.723-6.45 2.602-9.872 2.602z"/><path d="m232.546 338.736c-7.17-2.01-11.851-8.564-11.834-15.673 4.559-1.532 9.635-4.556 10.936-9.197 2.208-7.878-3.54-11.947-11.419-14.155-7.878-2.208-14.904-1.719-17.112 6.159-1.301 4.645 1.468 9.869 4.569 13.547-1.431 2.374-3.446 4.358-5.928 5.753-3.779 2.124-8.158 2.65-12.332 1.48-3.197-.897-6.517.969-7.413 4.168-.896 3.198.969 6.517 4.168 7.413 2.532.71 5.108 1.061 7.668 1.061 4.787 0 9.518-1.228 13.804-3.638 1.078-.606 2.1-1.281 3.076-2.007 3.17 7.853 9.807 14.212 18.573 16.669.543.152 1.089.225 1.626.225 2.628 0 5.043-1.737 5.787-4.392.895-3.198-.971-6.517-4.169-7.413z"/><path d="m296.49 285.415c-2.847 0-5.824-.401-8.831-1.244-6.166-1.728-11.544-5.121-15.145-9.556-4.028-4.962-5.475-10.891-3.968-16.266 2.982-10.639 16.048-15.967 29.749-12.128 13.699 3.839 22.094 15.181 19.113 25.822-2.328 8.303-10.799 13.372-20.918 13.372zm-16.364-23.82c-.601 2.144.823 4.329 1.725 5.44 2.016 2.483 5.316 4.508 9.053 5.555 7.356 2.063 13.945-.302 14.923-3.793.978-3.49-3.424-8.935-10.778-10.996-7.354-2.06-13.944.304-14.923 3.794z"/><path d="m179.445 252.617c-2.878 0-5.835-.407-8.75-1.224-6.166-1.728-11.544-5.121-15.144-9.556-4.029-4.962-5.475-10.891-3.969-16.266 2.981-10.641 16.05-15.968 29.749-12.129 13.7 3.84 22.095 15.182 19.113 25.822-1.506 5.375-5.823 9.689-11.844 11.835-2.837 1.011-5.947 1.518-9.155 1.518zm-6.809-28.362c-4.929 0-8.748 1.97-9.474 4.562-.601 2.144.823 4.328 1.725 5.44 2.016 2.483 5.316 4.508 9.053 5.555s7.608 1.032 10.621-.042c1.348-.481 3.7-1.607 4.301-3.752.978-3.49-3.423-8.935-10.778-10.996-1.894-.53-3.738-.767-5.448-.767zm-15.264 2.939h.01z"/><path d="m344.112 250.027c-1.559 0-3.117-.603-4.295-1.804l-12.126-12.369c-1.589-1.621-2.13-3.999-1.398-6.148s2.612-3.703 4.861-4.017c10.791-1.508 28.176-11.547 33.965-15.288 2.789-1.803 6.513-1.004 8.315 1.784 1.803 2.788 1.006 6.51-1.782 8.314-.739.478-14.648 9.422-28.164 14.288l4.919 5.017c2.325 2.371 2.287 6.179-.085 8.504-1.171 1.147-2.691 1.719-4.21 1.719z"/><path d="m145.007 190.235c-3.161 0-5.812-2.468-5.998-5.665-.193-3.316 2.339-6.159 5.654-6.352l7.014-.408c-6.734-12.688-11.019-28.661-11.244-29.511-.851-3.21 1.061-6.501 4.27-7.353 3.204-.851 6.502 1.059 7.355 4.268 1.77 6.661 7.892 25.781 14.866 34.152 1.453 1.744 1.8 4.158.898 6.241-.903 2.083-2.902 3.48-5.168 3.612l-17.293 1.005c-.119.007-.237.011-.354.011z"/><path d="m412.383 154.317c-.019 0-.037 0-.056 0-18.543-.013-43.813-3.763-61.747-6.906-5.949-1.043-13.559-2.764-19.648-6.857-7.848-5.273-11.518-13.435-10.337-22.983.855-6.904 3.764-12.329 8.646-16.126 8.561-6.658 20.891-6.035 29.48-4.959 3.07.296 6.387.584 9.524.827-2.268-1.389-4.567-2.649-6.483-3.523-10.968-5.002-39.941-14.655-46.561-15.185-6.281 1.524-36.35 14.864-61.333 26.688-.267.126-.539.24-.815.343-12.834 4.74-24.909-.827-31.511-14.533-5.426-11.263-3.669-26.796 10.188-34.693 9.284-5.384 56.859-32.544 75.457-34.873 8.165-1.024 64.226 6.1 93.237 12.838l42.69-32.178c4.421-3.331 10.705-2.449 14.036 1.971 3.332 4.42 2.449 10.705-1.971 14.036l-46.488 35.04c-2.443 1.842-5.592 2.467-8.556 1.696-27.357-7.116-83.806-13.805-90.599-13.496-11.441 1.554-47.613 20.63-67.816 32.343-4.685 2.671-2.587 7.645-2.12 8.615 2.566 5.325 4.659 5.064 6.129 4.566 39.227-18.557 62.2-28.114 68.293-28.409 10.824-.527 47.692 13.178 56.058 16.993 4.72 2.153 28.238 13.62 27.706 28.02-.108 2.898-1.41 10.027-11.167 13.631-2.028.749-4.555 1.683-29.972-.78-.097-.009-.194-.02-.29-.032-10.919-1.377-14.096.323-14.81.877-.196.152-.791.616-1.057 2.765-.289 2.333.273 2.975 1.623 3.883 3.34 2.245 9.805 3.378 11.929 3.75 14.044 2.462 40.291 6.593 58.302 6.606h.046c14.432 0 23.009-4.838 27.81-15.686 3.075-6.946 2.17-13.234 2.16-13.295-.565-3.239.494-6.548 2.835-8.857l48.927-48.263c3.941-3.888 10.287-3.844 14.173.097 3.887 3.94 3.844 10.286-.097 14.173l-45.67 45.05c.019 4.676-.678 11.705-3.999 19.208-5.58 12.602-18.113 27.618-46.146 27.618z"/><path d="m62.187 117.816c-2.23 0-4.459-.742-6.294-2.223-.595-.48-14.721-11.926-28.445-27.062-19.963-22.015-28.561-39.932-26.265-54.749 1.627-18.983 17.709-33.782 36.821-33.782 9.468 0 18.424 3.704 25.147 9.929 6.723-6.225 15.679-9.929 25.147-9.929 19.634 0 35.732 15.213 36.896 34.736 2.047 14.574-6.976 32.272-27.559 54.078-14.159 14.999-28.658 26.394-29.269 26.872-1.816 1.42-3.998 2.13-6.179 2.13zm-24.183-97.771c-8.819 0-16.228 6.882-16.867 15.668-.023.326-.063.651-.119.973-2.36 13.713 21.024 40.42 41.262 58.093 20.474-17.363 45.158-44.335 43.036-57.431-.062-.383-.102-.769-.119-1.156-.404-9.054-7.827-16.147-16.9-16.147-6.949 0-13.295 4.359-15.793 10.848-1.489 3.87-5.207 6.422-9.353 6.422s-7.864-2.553-9.353-6.422c-2.498-6.489-8.845-10.848-15.794-10.848z"/></g><path d="m262.447 219.122c-1.815 0-3.65-.492-5.302-1.525-2.221-1.388-5.752-2.576-8.092-3.092-5.405-1.192-8.82-6.54-7.628-11.946 1.192-5.405 6.538-8.823 11.946-7.628 1.932.426 8.679 2.094 14.398 5.668 4.694 2.933 6.121 9.117 3.187 13.811-1.902 3.042-5.168 4.712-8.509 4.712z" fill="#fff"/><path d="m217.246 208.712c-5.279 0-9.7-4.127-9.998-9.463-.309-5.527 3.92-10.257 9.447-10.567 1.412-.079 2.94-.107 4.665-.082 5.535.076 9.96 4.624 9.884 10.158-.075 5.535-4.666 9.954-10.158 9.885-1.277-.018-2.316-.002-3.271.053-.191.011-.381.016-.569.016z" fill="#fff"/></g></g></svg>