<svg id="Capa_1" enable-background="new 0 0 512.003 512.003" height="512" viewBox="0 0 512.003 512.003" width="512" xmlns="http://www.w3.org/2000/svg"><g><path d="m31.002 135.003v362c0 8.284 6.716 15 15 15h420c8.284 0 15-6.716 15-15v-362c0-8.284-6.716-15-15-15h-102.053l-204.365-117.99c-7.175-4.144-16.349-1.684-20.49 5.49l-60 103.923c-1.559 2.701-2.182 5.685-1.971 8.577h-31.121c-8.285 0-15 6.716-15 15zm126.572-99.51 181.866 105-40.132 69.51h-19.475l-76.318-44.062c21.603 12.464 49.125 4.893 61.462-16.477 12.435-21.537 5.071-49.034-16.471-61.471-21.539-12.435-49.034-5.071-61.471 16.471-12.43 21.529-5.079 49.02 16.459 61.464l-90.921-52.493zm55.442 83.971c4.136-7.163 13.297-9.645 20.49-5.49 7.18 4.144 9.636 13.309 5.491 20.49-4.135 7.164-13.328 9.625-20.49 5.491-7.18-4.145-9.637-13.309-5.491-20.491zm-152.014 30.539h54.909l103.923 60h-83.832c-8.284 0-15 6.716-15 15s6.716 15 15 15h240c8.284 0 15-6.716 15-15s-6.716-15-15-15h-42.053l34.641-60h82.412v332h-390v-332z"/><path d="m293.501 293.503c-14.565 0-27.422 5.634-37.5 16.362-10.078-10.728-22.935-16.362-37.5-16.362-29.439 0-52.5 23.094-52.5 52.576 0 31.177 25.721 51.216 61.318 78.951 6.17 4.807 12.549 9.777 19.312 15.187 2.739 2.191 6.055 3.287 9.37 3.287s6.631-1.096 9.37-3.287c6.763-5.41 13.142-10.38 19.312-15.187 35.598-27.735 61.318-47.774 61.318-78.951 0-29.482-23.06-52.576-52.5-52.576zm-27.256 107.861c-3.341 2.603-6.743 5.254-10.243 8.003-3.5-2.749-6.902-5.4-10.243-8.003-32.695-25.473-49.757-39.5-49.757-55.285 0-11.219 7.729-22.576 22.5-22.576 16.315 0 22.402 17.063 23.146 19.359 1.836 6.441 7.651 10.886 14.354 10.886 6.702 0 12.518-4.445 14.354-10.886.744-2.295 6.831-19.359 23.146-19.359 14.771 0 22.5 11.357 22.5 22.576-.001 15.785-17.062 29.812-49.757 55.285z"/></g></svg>