<svg id="Capa_1" enable-background="new 0 0 511.965 511.965" height="512" viewBox="0 0 511.965 511.965" width="512" xmlns="http://www.w3.org/2000/svg"><g><g><path d="m255.983 202.629h-212.286v-189.72c0-2.994 2.427-5.42 5.42-5.42h206.865v195.14z" fill="#e8ad8c"/></g><g><path d="m235.754 7.486h20.228v195.146h-20.228z" fill="#e19974"/></g><g><path d="m468.268 202.629h-212.285v-195.14h206.865c2.994 0 5.42 2.427 5.42 5.42z" fill="#e8ad8c"/></g><g><path d="m468.272 12.907v189.724h-20.788v-189.724c0-2.995-2.426-5.422-5.422-5.422h20.788c2.996.001 5.422 2.427 5.422 5.422z" fill="#e19974"/></g><g><path d="m497.043 504.477h-482.121c-3.755 0-6.799-3.044-6.799-6.799v-288.25c0-3.755 3.044-6.799 6.799-6.799h482.121c3.755 0 6.799 3.044 6.799 6.799v288.25c0 3.755-3.044 6.799-6.799 6.799z" fill="#ffefd2"/></g><g><path d="m503.846 209.431v288.251c0 3.754-3.045 6.799-6.799 6.799h-20.169c3.754 0 6.799-3.045 6.799-6.799v-288.251c0-3.754-3.045-6.799-6.799-6.799h20.169c3.754 0 6.799 3.045 6.799 6.799z" fill="#fee8c7"/></g><g><path d="m166.689 85.169h-33.698c-3.699 0-6.698-2.999-6.698-6.698v-70.982h47.095v70.982c-.001 3.699-3 6.698-6.699 6.698z" fill="#ffefd2"/></g><g><path d="m378.975 85.169h-33.698c-3.699 0-6.698-2.999-6.698-6.698v-70.982h47.095v70.982c-.001 3.699-3 6.698-6.699 6.698z" fill="#ffefd2"/></g><g><path d="m385.671 7.486v70.989c0 3.694-2.995 6.69-6.7 6.69h-19.789c3.694 0 6.7-2.995 6.7-6.69v-70.989z" fill="#fee8c7"/></g><g><path d="m173.387 7.486v70.989c0 3.694-2.995 6.69-6.7 6.69h-19.789c3.694 0 6.7-2.995 6.7-6.69v-70.989z" fill="#fee8c7"/></g><g><path d="m315.363 269.729c-.025-.068-.052-.136-.08-.204-1.336-3.25-4.468-5.348-7.981-5.348-.003 0-.007 0-.01 0-3.517.003-6.649 2.109-7.979 5.365-.023.056-.045.112-.066.168l-18.913 49.657c-1.472 3.865.468 8.191 4.332 9.663.877.334 1.778.492 2.665.492 3.017 0 5.861-1.838 6.999-4.825l2.873-7.544h20.049l2.839 7.523c1.46 3.87 5.781 5.824 9.65 4.362 3.869-1.46 5.822-5.781 4.361-9.65zm-12.455 32.448 4.366-11.465 4.327 11.465z"/><path d="m221.153 264.611c-3.128.976-5.259 3.872-5.259 7.149v50.273c0 4.136 3.352 7.488 7.488 7.488s7.488-3.353 7.488-7.488v-26.252l20.346 29.463c2.156 3.11 5.769 4.422 9.198 3.351 3.494-1.092 5.751-4.334 5.751-8.332l-.471-48.67c-.04-4.111-3.384-7.416-7.486-7.416-.025 0-.05 0-.074 0-4.136.04-7.456 3.425-7.416 7.56l.26 26.803-21.433-31.037c-1.863-2.695-5.259-3.867-8.392-2.892z"/><path d="m425.194 279.614c4.136 0 7.488-3.353 7.488-7.488 0-4.136-3.352-7.488-7.488-7.488h-21.029c-4.136 0-7.488 3.353-7.488 7.488v49.907c0 4.136 3.352 7.488 7.488 7.488h21.029c4.136 0 7.488-3.353 7.488-7.488s-3.352-7.488-7.488-7.488h-13.54v-9.977h11.99c4.136 0 7.488-3.353 7.488-7.488 0-4.136-3.352-7.488-7.488-7.488h-11.99v-9.977h13.54z"/><path d="m100.615 265.667h-13.844c-1.988 0-3.895.791-5.3 2.198-1.404 1.407-2.192 3.316-2.188 5.304v.035.002 48.033c0 .461.048.91.127 1.347.133 1.793.901 3.487 2.185 4.761 1.402 1.393 3.299 2.174 5.275 2.174h.028c.419-.001 10.298-.04 14.251-.109 15.466-.271 26.691-13.652 26.691-31.818.001-19.096-10.94-31.927-27.225-31.927zm.274 48.771c-1.536.027-4.063.049-6.555.066-.018-5.661-.051-27.961-.061-33.86h6.342c11.366 0 12.249 12.974 12.249 16.95 0 8.28-3.703 16.699-11.975 16.844z"/><path d="m361.142 329.521c4.136 0 7.488-3.353 7.488-7.488v-42.879h6.475c4.136 0 7.488-3.353 7.488-7.488 0-4.136-3.352-7.488-7.488-7.488h-27.815c-4.136 0-7.488 3.353-7.488 7.488 0 4.136 3.352 7.488 7.488 7.488h6.363v42.879c.001 4.135 3.353 7.488 7.489 7.488z"/><path d="m171.137 329.521c18.015 0 32.672-14.656 32.672-32.672s-14.657-32.672-32.672-32.672-32.672 14.657-32.672 32.672 14.657 32.672 32.672 32.672zm0-50.367c9.757 0 17.695 7.938 17.695 17.696 0 9.757-7.938 17.695-17.695 17.695s-17.695-7.938-17.695-17.695c0-9.758 7.937-17.696 17.695-17.696z"/><path d="m126.052 442.818c.877.334 1.778.492 2.664.492 3.017 0 5.861-1.838 6.999-4.825l4.626-12.146h31.358l4.576 12.125c1.46 3.87 5.781 5.823 9.65 4.362 3.869-1.46 5.822-5.781 4.361-9.65l-25.715-68.14c-.025-.068-.052-.135-.08-.203-1.401-3.41-4.687-5.612-8.374-5.612-.003 0-.005 0-.008 0-3.69.003-6.976 2.211-8.374 5.626-.023.057-.046.114-.067.171l-25.95 68.137c-1.472 3.865.469 8.191 4.334 9.663zm30.039-57.836 9.955 26.38h-20.002z"/><path d="m212.826 366.71v69.11c0 4.136 3.352 7.488 7.488 7.488s7.488-3.353 7.488-7.488v-69.11c0-4.135-3.352-7.488-7.488-7.488-4.136-.001-7.488 3.352-7.488 7.488z"/><path d="m257.36 359.221c-1.988 0-3.895.791-5.3 2.198-1.404 1.407-2.192 3.316-2.188 5.304v.056.002 67.916c0 .528.056 1.043.16 1.541.103 1.843.876 3.59 2.193 4.897 1.403 1.393 3.299 2.174 5.275 2.174h.028c.592-.002 14.54-.057 20.108-.154 20.103-.351 34.694-17.968 34.694-41.89 0-25.148-14.225-42.044-35.397-42.044zm39.993 42.044c0 12.795-6.252 26.676-19.979 26.915-2.833.05-8.036.088-12.412.114-.026-8.163-.086-45.611-.101-54.096h12.071c15.056 0 20.421 13.982 20.421 27.067z"/><path d="m362.454 428.332c-7.188 0-14.117-2.911-18.535-7.785-2.778-3.065-7.514-3.296-10.578-.52-3.063 2.777-3.297 7.513-.52 10.577 7.21 7.955 18.288 12.704 29.633 12.704 14.006 0 25.761-8.895 27.949-21.151 1.639-9.177-2.586-21.188-19.356-27.374-8.673-3.199-16.734-6.687-19.01-7.685-1.73-1.329-2.563-3.409-2.24-5.658.207-1.438 1.233-4.948 6.304-6.476 10.366-3.121 19.851 4.423 20.08 4.609 3.167 2.63 7.866 2.214 10.518-.942 2.661-3.166 2.252-7.89-.914-10.55-.633-.532-15.711-12.967-34.004-7.457-9.108 2.744-15.548 9.905-16.809 18.688-1.179 8.214 2.38 16.114 9.288 20.617.331.216.678.405 1.038.566.399.178 9.881 4.399 20.565 8.34 3.301 1.218 10.866 4.697 9.795 10.69-.773 4.329-5.923 8.807-13.204 8.807z"/><circle cx="43.697" cy="240.883" r="9.984"/><circle cx="43.697" cy="466.222" r="9.984"/><ellipse cx="468.268" cy="240.883" rx="9.984" ry="9.984" transform="matrix(.987 -.16 .16 .987 -32.539 78.119)"/><ellipse cx="468.268" cy="466.222" rx="9.984" ry="9.984" transform="matrix(.973 -.23 .23 .973 -94.589 120.057)"/><path d="m497.044 195.141h-21.287v-79.764c0-4.136-3.352-7.488-7.488-7.488s-7.488 3.353-7.488 7.488v79.764h-197.31v-180.164h67.618v63.493c0 7.823 6.364 14.187 14.187 14.187h33.698c7.822 0 14.186-6.364 14.186-14.187v-63.493h67.619v63.667c0 4.136 3.352 7.488 7.488 7.488s7.488-3.353 7.488-7.488v-65.735c.002-7.118-5.789-12.909-12.907-12.909h-206.865-206.865c-7.118 0-12.909 5.791-12.909 12.909v182.232h-21.287c-7.878 0-14.287 6.41-14.287 14.287v288.25c0 7.878 6.409 14.287 14.287 14.287h74.517c4.136 0 7.488-3.353 7.488-7.488s-3.352-7.488-7.488-7.488h-73.828v-286.872h480.742v286.871h-372.25c-4.136 0-7.488 3.353-7.488 7.488s3.352 7.488 7.488 7.488h372.94c7.877 0 14.286-6.409 14.286-14.287v-288.25c.001-7.877-6.408-14.286-14.285-14.286zm-150.978-180.164h32.118v62.704h-32.118zm-212.285 0h32.118v62.704h-32.118zm114.714 180.164h-197.309v-180.164h67.618v63.493c0 7.823 6.364 14.187 14.187 14.187h33.698c7.822 0 14.186-6.364 14.186-14.187v-63.493h67.619v180.164z"/></g></g></svg>