<svg id="Capa_1" enable-background="new 0 0 512 512" height="512" viewBox="0 0 512 512" width="512" xmlns="http://www.w3.org/2000/svg"><g><path d="m143.5 165h67.5v67.5c0 4.143 3.357 7.5 7.5 7.5h75c4.143 0 7.5-3.357 7.5-7.5v-67.5h67.5c4.143 0 7.5-3.357 7.5-7.5v-75c0-4.143-3.357-7.5-7.5-7.5h-67.5v-67.5c0-4.143-3.357-7.5-7.5-7.5h-75c-4.143 0-7.5 3.357-7.5 7.5v67.5h-67.5c-4.143 0-7.5 3.357-7.5 7.5v75c0 4.143 3.357 7.5 7.5 7.5zm7.5-75h67.5c4.143 0 7.5-3.357 7.5-7.5v-67.5h60v67.5c0 4.143 3.357 7.5 7.5 7.5h67.5v60h-67.5c-4.143 0-7.5 3.357-7.5 7.5v67.5h-60v-67.5c0-4.143-3.357-7.5-7.5-7.5h-67.5z"/><path d="m510.356 332.814-60-75c-1.423-1.778-3.578-2.814-5.856-2.814h-377c-2.278 0-4.434 1.036-5.856 2.814l-60 75c-1.801 2.252-2.152 5.336-.903 7.935s3.876 4.251 6.759 4.251h188.5c2.278 0 4.434-1.036 5.856-2.814l46.644-58.305v213.119h-173.5v-129.5c0-4.143-3.357-7.5-7.5-7.5s-7.5 3.357-7.5 7.5v137c0 4.143 3.357 7.5 7.5 7.5h377c4.143 0 7.5-3.357 7.5-7.5v-159.5h52.5c2.883 0 5.511-1.652 6.76-4.251s.897-5.683-.904-7.935zm-317.96-2.814h-169.291l48-60h169.291zm244.604 167h-173.5v-213.119l46.644 58.305c1.423 1.778 3.578 2.814 5.856 2.814h121zm-117.395-167-48-60h169.291l48 60z"/><path d="m226 482c4.143 0 7.5-3.357 7.5-7.5v-107c0-4.143-3.357-7.5-7.5-7.5h-128.5c-4.143 0-7.5 3.357-7.5 7.5v107c0 4.143 3.357 7.5 7.5 7.5zm-121-15v-62h113.5v62zm113.5-92v15h-113.5v-15z"/></g></svg>