<svg id="stetoscope" enable-background="new 0 0 300 300" height="512" viewBox="0 0 300 300" width="512" xmlns="http://www.w3.org/2000/svg"><g><path d="m98.082 120.113v.51c0 1.818-.959 3.541-2.631 4.727-4.152 2.941-6.258 7.916-5.496 12.979.82 5.447 5.146 10.014 10.523 11.104.912.184 1.836.275 2.756.275 1.387 0 2.764-.209 4.072-.625 2.525-.801 5.086-.801 7.615 0 2.172.691 4.537.811 6.832.348 5.373-1.088 9.699-5.654 10.52-11.102.762-5.062-1.344-10.037-5.496-12.979-1.672-1.186-2.631-2.908-2.631-4.727 0-7.221-5.42-13.162-12.338-13.523-3.598-.199-7.045 1.072-9.664 3.559-2.582 2.448-4.062 5.896-4.062 9.454zm8 .51v-.51c0-1.395.557-2.691 1.57-3.652.943-.896 2.164-1.381 3.463-1.381.092 0 .184.004.275.008 2.623.139 4.756 2.621 4.756 5.535 0 4.381 2.244 8.588 6.006 11.254 1.699 1.203 2.525 3.17 2.211 5.26-.324 2.152-2.09 4.025-4.195 4.451-.979.199-1.93.152-2.824-.131-4.078-1.293-8.385-1.293-12.459 0-.896.285-1.852.326-2.82.133-2.109-.428-3.875-2.301-4.199-4.453-.314-2.09.512-4.057 2.211-5.26 3.76-2.666 6.005-6.873 6.005-11.254z"/><path d="m129.919 116.707c0 6.816 5.545 12.361 12.361 12.361s12.361-5.545 12.361-12.361-5.545-12.361-12.361-12.361-12.361 5.545-12.361 12.361zm12.362-4.361c2.404 0 4.361 1.957 4.361 4.361s-1.957 4.361-4.361 4.361-4.361-1.957-4.361-4.361 1.956-4.361 4.361-4.361z"/><path d="m126.697 80.971c-6.816 0-12.361 5.545-12.361 12.361s5.545 12.361 12.361 12.361 12.363-5.545 12.363-12.361-5.547-12.361-12.363-12.361zm0 16.722c-2.404 0-4.361-1.957-4.361-4.361s1.957-4.361 4.361-4.361c2.406 0 4.363 1.957 4.363 4.361s-1.957 4.361-4.363 4.361z"/><path d="m87.064 93.332c0 6.816 5.545 12.361 12.361 12.361s12.361-5.545 12.361-12.361-5.545-12.361-12.361-12.361-12.361 5.545-12.361 12.361zm16.723 0c0 2.404-1.957 4.361-4.361 4.361s-4.361-1.957-4.361-4.361 1.957-4.361 4.361-4.361 4.361 1.957 4.361 4.361z"/><path d="m79.947 104.346c-6.816 0-12.361 5.545-12.361 12.361s5.545 12.361 12.361 12.361 12.361-5.545 12.361-12.361-5.545-12.361-12.361-12.361zm0 16.722c-2.404 0-4.361-1.957-4.361-4.361s1.957-4.361 4.361-4.361 4.361 1.957 4.361 4.361-1.957 4.361-4.361 4.361z"/><path d="m232.318 172.677v-18.528c0-14.418-11.73-26.148-26.148-26.148s-26.148 11.73-26.148 26.148v65.826c0 17.658-14.367 32.025-32.025 32.025-17.66 0-32.027-14.367-32.027-32.025v-45.535c35.813-1.896 61.508-48.459 61.508-80.083 0-17.946-9.841-31.292-28.462-38.776-.228-8.424-7.115-15.216-15.593-15.216-8.621 0-15.635 7.014-15.635 15.635s7.014 15.635 15.635 15.635c5.891 0 10.969-3.313 13.634-8.138 14.817 6.291 22.42 16.623 22.42 30.861 0 28.391-23.945 72.174-55.762 72.174-32.883 0-61.738-44.982-61.738-72.174 0-15.942 7.37-26.508 22.298-32.345 2.361 5.644 7.935 9.622 14.425 9.622 8.621 0 15.635-7.014 15.635-15.635s-7.015-15.635-15.636-15.635c-7.86 0-14.319 5.849-15.41 13.411-19.167 6.779-29.313 20.768-29.313 40.581 0 29.347 28.741 75.155 63.992 79.766v45.852c0 22.07 17.957 40.025 40.027 40.025s40.025-17.955 40.025-40.025v-65.826c0-10.008 8.141-18.148 18.148-18.148s18.148 8.141 18.148 18.148v18.528c-13.142 1.945-23.27 13.268-23.27 26.942 0 15.037 12.232 27.27 27.27 27.27s27.271-12.232 27.271-27.27c.002-13.675-10.127-24.997-23.269-26.942zm-98.897-109.042c-4.209 0-7.635-3.426-7.635-7.635s3.426-7.635 7.635-7.635 7.635 3.426 7.635 7.635-3.426 7.635-7.635 7.635zm-44.722-15.27c4.209 0 7.635 3.426 7.635 7.635s-3.426 7.635-7.635 7.635-7.635-3.426-7.635-7.635 3.426-7.635 7.635-7.635zm139.619 170.524c-10.625 0-19.27-8.645-19.27-19.27s8.645-19.27 19.27-19.27c10.627 0 19.271 8.645 19.271 19.27s-8.644 19.27-19.271 19.27z"/><path d="m228.319 190.503c-5.035 0-9.116 4.082-9.116 9.116 0 5.035 4.081 9.116 9.116 9.116s9.116-4.082 9.116-9.116-4.082-9.116-9.116-9.116z"/><path d="m220.021 56c2.209 0 4-1.791 4-4v-8c0-2.209-1.791-4-4-4s-4 1.791-4 4v8c0 2.209 1.791 4 4 4z"/><path d="m220.021 64c-2.209 0-4 1.791-4 4v8c0 2.209 1.791 4 4 4s4-1.791 4-4v-8c0-2.209-1.791-4-4-4z"/><path d="m204.021 64h8c2.209 0 4-1.791 4-4s-1.791-4-4-4h-8c-2.209 0-4 1.791-4 4s1.791 4 4 4z"/><path d="m228.021 64h8c2.209 0 4-1.791 4-4s-1.791-4-4-4h-8c-2.209 0-4 1.791-4 4s1.791 4 4 4z"/><path d="m251.747 99.987c2.362 0 4.277-1.915 4.277-4.276s-1.915-4.277-4.277-4.277-4.276 1.915-4.276 4.277 1.914 4.276 4.276 4.276z"/></g></svg>